<svg id="Layer_1" data-name="Layer 1" 
    xmlns="http://www.w3.org/2000/svg" viewBox="0 0 1826.61 382.21">
    <defs>
        <style>.cls-1{fill:#fff;}</style>
    </defs>
    <title>web-logo-white</title>
    <path class="cls-1" d="M592.35,188.65H563.52v68.1H531.75V94.83h81.13a65.23,65.23,0,0,1,24.92,5.69c17.1,7.74,26.63,22.55,26.63,41.22a49.45,49.45,0,0,1-3.91,19.59,39.17,39.17,0,0,1-10,14.12,52.58,52.58,0,0,1-24,11.84l49.36,69.46H640.73ZM563.52,163.6h49.6c1,0,12-.22,18.57-6.15,3.91-3.64,5.87-8.65,5.87-15.71,0-9.11-3.67-15-11.49-18.67a37,37,0,0,0-13.44-3.19H563.52Z" transform="translate(-24.89 -9.52)"/>
    <path class="cls-1" d="M793.7,192.41l-94.08,20.5c7.08,13.66,23.46,21.41,39.58,18a34.57,34.57,0,0,0,24.2-18.67l24.43,10.47a60.17,60.17,0,0,1-16.62,20.5,62.11,62.11,0,0,1-25.9,12.07,64.9,64.9,0,0,1-46.91-7.52,58.66,58.66,0,0,1-27.86-36.43,56,56,0,0,1,7.58-44c8.79-13.43,22.48-22.54,38.85-26.19a64.94,64.94,0,0,1,46.91,7.52,59.73,59.73,0,0,1,23.22,24.14,54,54,0,0,1,4.64,12.3Zm-34-13.66c-8.06-10.7-22.48-16.17-36.65-13.21-14.42,3.19-24.68,14.12-26.88,27.1Z" transform="translate(-24.89 -9.52)"/>
    <path class="cls-1" d="M916,139.6,852.44,257.12,789.15,139.6h30.06l33.23,61.49,33.23-61.49Z" transform="translate(-24.89 -9.52)"/>
    <path class="cls-1" d="M1036,192.67,942,213.17c7.09,13.66,23.46,21.41,39.58,18a34.57,34.57,0,0,0,24.2-18.67L1030.16,223a60.25,60.25,0,0,1-16.61,20.5,62.2,62.2,0,0,1-25.91,12.07A64.9,64.9,0,0,1,940.73,248a58.66,58.66,0,0,1-27.86-36.43,56,56,0,0,1,7.58-44c8.79-13.43,22.48-22.54,38.85-26.19a64.94,64.94,0,0,1,46.91,7.52,59.73,59.73,0,0,1,23.22,24.14,54,54,0,0,1,4.64,12.3Zm-34-13.66c-8.06-10.7-22.48-16.17-36.65-13.21C951,169,940.73,179.92,938.53,192.9Z" transform="translate(-24.89 -9.52)"/>
    <path class="cls-1" d="M1118,144.28V173.2c-.24,0-.49-.23-.73-.23a34.51,34.51,0,0,0-9.53-1.36c-8.55,0-16.86,3-22.48,8.65a25.53,25.53,0,0,0-6.11,10.48c-1.22,3.64-1.22,7.28-1.22,11.16V257h-29.33V145.87h29.33v16.4S1090.83,142.91,1118,144.28Z" transform="translate(-24.89 -9.52)"/>
    <path class="cls-1" d="M1204.45,139.84a65.52,65.52,0,0,0-44.71,17.31V92.47h-29.33V254.39h29.33V240.27a65.57,65.57,0,0,0,44.71,17.31c35,0,63-26.42,63-59C1267.5,166.26,1239.4,139.84,1204.45,139.84Zm-5.62,95.42c-21.5,0-39.09-16.17-39.09-36.44,0-20,17.59-36.43,39.09-36.43,21.75,0,39.1,16.39,39.1,36.43C1237.93,219.09,1220.58,235.26,1198.83,235.26Z" transform="translate(-24.89 -9.52)"/>
    <path class="cls-1" d="M1399.94,192.67l-94.08,20.5c7.09,13.66,23.46,21.41,39.58,18a34.57,34.57,0,0,0,24.2-18.67L1394.07,223a60.25,60.25,0,0,1-16.61,20.5,62.2,62.2,0,0,1-25.91,12.07,64.9,64.9,0,0,1-46.91-7.52,58.66,58.66,0,0,1-27.86-36.43,56,56,0,0,1,7.58-44c8.79-13.43,22.48-22.54,38.85-26.19a64.94,64.94,0,0,1,46.91,7.52,59.73,59.73,0,0,1,23.22,24.14,54,54,0,0,1,4.64,12.3ZM1366,179c-8.06-10.7-22.48-16.17-36.65-13.21-14.42,3.19-24.68,14.12-26.88,27.1Z" transform="translate(-24.89 -9.52)"/>
    <path class="cls-1" d="M1481.79,144.28V173.2c-.24,0-.49-.23-.73-.23a34.45,34.45,0,0,0-9.53-1.36c-8.55,0-16.86,3-22.48,8.65a25.64,25.64,0,0,0-6.11,10.48c-1.22,3.64-1.22,7.28-1.22,11.16V257h-29.33V145.87h29.33v16.4S1454.67,142.91,1481.79,144.28Z" transform="translate(-24.89 -9.52)"/>
    <path class="cls-1" d="M1629.14,142.68V253.82h-29.32V231.27c-11.24,15.49-30.55,25.74-52.3,25.74-34.69,0-63-26.42-63-59s28.35-58.75,63-58.75c21.75,0,41.06,10.25,52.3,25.73V142.68Zm-36.9,55.57c0-20.27-17.59-36.44-39.1-36.44s-39.09,16.17-39.09,36.44c0,20,17.59,36.44,39.09,36.44S1592.24,218.29,1592.24,198.25Z" transform="translate(-24.89 -9.52)"/>
    <path class="cls-1" d="M1724,168.55h-29.57V257h-29.32V168.55H1641.6V142.81h23.46v-40h29.32v40H1724Z" transform="translate(-24.89 -9.52)"/>
    <path class="cls-1" d="M1851.5,192.67l-94.08,20.5c7.09,13.66,23.46,21.41,39.59,18a34.55,34.55,0,0,0,24.19-18.67L1845.64,223a60.17,60.17,0,0,1-16.62,20.5,62.22,62.22,0,0,1-25.9,12.07A64.92,64.92,0,0,1,1756.2,248a58.69,58.69,0,0,1-27.86-36.43,56.06,56.06,0,0,1,7.58-44c8.8-13.43,22.48-22.54,38.85-26.19a65,65,0,0,1,46.92,7.52,59.77,59.77,0,0,1,23.21,24.14,53.6,53.6,0,0,1,4.65,12.3Zm-34-13.66c-8.06-10.7-22.48-16.17-36.65-13.21-14.42,3.19-24.68,14.12-26.88,27.1Z" transform="translate(-24.89 -9.52)"/>
    <path class="cls-1" d="M236.07,23.18V378.07a13.47,13.47,0,0,1-12.81,13.66h-.85a13.47,13.47,0,0,1-12.81-13.66V23.18a13.24,13.24,0,1,1,26.47,0Z" transform="translate(-24.89 -9.52)"/>
    <ellipse class="cls-1" cx="14.66" cy="191.11" rx="14.66" ry="13.66"/>
    <path class="cls-1" d="M359.17,132.33V268.92a13.24,13.24,0,1,1-26.47,0V132.33a13.24,13.24,0,1,1,26.47,0Z" transform="translate(-24.89 -9.52)"/>
    <ellipse class="cls-1" cx="381.19" cy="191.11" rx="14.66" ry="13.66"/>
    <path class="cls-1" d="M296.94,77.74V323.5a13.24,13.24,0,1,1-26.47,0V77.74a13.24,13.24,0,1,1,26.47,0Z" transform="translate(-24.89 -9.52)"/>
    <path class="cls-1" d="M175.08,77.74V323.5a13.24,13.24,0,1,1-26.47,0V77.74a13.24,13.24,0,1,1,26.47,0Z" transform="translate(-24.89 -9.52)"/>
    <path class="cls-1" d="M112.79,132.33V268.92a13.24,13.24,0,1,1-26.47,0V132.33a13.24,13.24,0,1,1,26.47,0Z" transform="translate(-24.89 -9.52)"/>
</svg>