<svg id="Layer_1" data-name="Layer 1" xmlns="http://www.w3.org/2000/svg" viewBox="0 0 1047 299"><defs><style>.cls-1{fill:#fff;}</style></defs><title>white-box-logo</title><path class="cls-1" d="M578.56,145.43a18.87,18.87,0,0,0-14.3,15.47l33.8-7.93A18.83,18.83,0,0,0,578.56,145.43Z" transform="translate(-8)"/><path class="cls-1" d="M861.44,143.48a20.8,20.8,0,1,0,20.8,20.8A20.78,20.78,0,0,0,861.44,143.48Z" transform="translate(-8)"/><path class="cls-1" d="M661.63,143.48a20.8,20.8,0,1,0,20.8,20.8A20.86,20.86,0,0,0,661.63,143.48Z" transform="translate(-8)"/><path class="cls-1" d="M442.06,145.43a18.87,18.87,0,0,0-14.3,15.47l33.8-7.93A18.83,18.83,0,0,0,442.06,145.43Z" transform="translate(-8)"/><path class="cls-1" d="M392.79,130.35c0-5.2-2-8.58-6.11-10.66a18.55,18.55,0,0,0-7.15-1.82H353.4v25h26.39c.52,0,6.37-.13,9.88-3.51C391.75,137.24,392.79,134.38,392.79,130.35Z" transform="translate(-8)"/><path class="cls-1" d="M734.82,145.43a18.87,18.87,0,0,0-14.3,15.47l33.8-7.93A18.83,18.83,0,0,0,734.82,145.43Z" transform="translate(-8)"/><path class="cls-1" d="M8,0V299H1055V0ZM44,159.72a10.37,10.37,0,1,1,10.37-10.37A10.37,10.37,0,0,1,44,159.72Zm51.79,41.45c0,5.72-4.19,10.37-9.36,10.37s-9.36-4.65-9.36-10.37V97.53c0-5.72,4.19-10.36,9.36-10.36s9.36,4.64,9.36,10.36Zm44.05,41.42c0,5.72-4.19,10.36-9.36,10.36s-9.36-4.64-9.36-10.36V56.12c0-5.73,4.19-10.37,9.36-10.37s9.36,4.64,9.36,10.37ZM183,284c0,5.61-4,10.19-9.05,10.36h-.61c-5-.17-9.05-4.75-9.05-10.36V14.72c0-5.73,4.19-10.37,9.35-10.37S183,9,183,14.72Zm43-41.4c0,5.72-4.19,10.36-9.36,10.36s-9.36-4.64-9.36-10.36V56.12c0-5.73,4.19-10.37,9.36-10.37S226,50.39,226,56.12Zm44-41.42c0,5.72-4.2,10.37-9.36,10.37s-9.36-4.65-9.36-10.37V97.53c0-5.72,4.19-10.36,9.36-10.36S270,91.81,270,97.53Zm33.16-41.45a10.37,10.37,0,1,1,10.37-10.37A10.36,10.36,0,0,1,303.18,159.72ZM394.48,196l-25.74-38.87H353.4V196H336.5V103.57h43.16a32.75,32.75,0,0,1,13.26,3.25c9.1,4.42,14.17,12.87,14.17,23.53A30.06,30.06,0,0,1,405,141.53a22.4,22.4,0,0,1-5.33,8.06,27.19,27.19,0,0,1-12.74,6.76L413.2,196Zm56.16-13.26a18.63,18.63,0,0,0,12.87-10.66l13,6a34,34,0,0,1-8.84,11.7,32.12,32.12,0,0,1-13.78,6.89,32.55,32.55,0,0,1-25-4.29,33.32,33.32,0,0,1-14.82-20.8,33.93,33.93,0,0,1,4-25.09,32.78,32.78,0,0,1,45.63-10.66,33.19,33.19,0,0,1,12.35,13.78,32.11,32.11,0,0,1,2.47,7l1,4.16-50.05,11.7A18.87,18.87,0,0,0,450.64,182.74Zm64,16.77-33.67-67.08h16l17.68,35.1,17.68-35.1H548.4Zm72.54-16.77A18.63,18.63,0,0,0,600,172.08l13,6a34,34,0,0,1-8.84,11.7,32.12,32.12,0,0,1-13.78,6.89,32.55,32.55,0,0,1-25-4.29,33.32,33.32,0,0,1-14.82-20.8,33.93,33.93,0,0,1,4-25.09,32.78,32.78,0,0,1,45.63-10.66,33.19,33.19,0,0,1,12.35,13.78,32.11,32.11,0,0,1,2.47,7l1,4.16-50,11.7A18.87,18.87,0,0,0,587.14,182.74Zm77.48,15.08a33.62,33.62,0,0,1-23.79-9.88V196h-15.6V103.57h15.6v36.92a33.58,33.58,0,1,1,23.79,57.33Zm78.78-15.08a18.63,18.63,0,0,0,12.87-10.66l13,6a34,34,0,0,1-8.84,11.7,32.12,32.12,0,0,1-13.78,6.89,32.55,32.55,0,0,1-25-4.29,33.32,33.32,0,0,1-14.82-20.8,33.93,33.93,0,0,1,4-25.09,32.78,32.78,0,0,1,45.63-10.66,33.19,33.19,0,0,1,12.35,13.78,32.11,32.11,0,0,1,2.47,7l1,4.16-50,11.7A18.87,18.87,0,0,0,743.4,182.74Zm76.31-34.58c-.13,0-.26-.13-.39-.13a17.16,17.16,0,0,0-5.07-.78,16.18,16.18,0,0,0-12,4.94,14.93,14.93,0,0,0-3.25,6,20.83,20.83,0,0,0-.65,6.37V196h-15.6V132.56h15.6v9.36a24.26,24.26,0,0,1,21.32-10.27ZM901.87,196h-15.6V183.13a33.61,33.61,0,1,1,0-37.83V132.56h15.6Zm54.21-49.14H940.35V196h-15.6V146.86H912.27v-14.3h12.48V110.33h15.6v22.23h15.73Zm42.64,35.88a18.63,18.63,0,0,0,12.87-10.66l13,6a34,34,0,0,1-8.84,11.7,32.12,32.12,0,0,1-13.78,6.89,32.55,32.55,0,0,1-25-4.29,33.32,33.32,0,0,1-14.82-20.8,33.93,33.93,0,0,1,4-25.09,32.78,32.78,0,0,1,45.63-10.66,33.19,33.19,0,0,1,12.35,13.78,32.11,32.11,0,0,1,2.47,7l1,4.16-50.05,11.7A18.87,18.87,0,0,0,998.72,182.74Z" transform="translate(-8)"/><path class="cls-1" d="M990.14,145.43a18.87,18.87,0,0,0-14.3,15.47l33.8-7.93A18.83,18.83,0,0,0,990.14,145.43Z" transform="translate(-8)"/></svg>